<svg id="visual" viewBox="0 0 1440 900" width="1440" height="900" xmlns="http://www.w3.org/2000/svg" xmlns:xlink="http://www.w3.org/1999/xlink" version="1.1"><g stroke-width="1" stroke-linejoin="bevel"><path d="M720 385.7L576 385.7L720 514.3Z" fill="#007f8f" stroke="#007f8f"></path><path d="M576 385.7L576 514.3L720 514.3Z" fill="#16273a" stroke="#16273a"></path><path d="M576 514.3L576 642.9L720 514.3Z" fill="#009292" stroke="#009292"></path><path d="M576 642.9L720 642.9L720 514.3Z" fill="#00b679" stroke="#00b679"></path><path d="M720 385.7L720 257.1L576 385.7Z" fill="#00a58b" stroke="#00a58b"></path><path d="M720 257.1L576 257.1L576 385.7Z" fill="#006c82" stroke="#006c82"></path><path d="M864 514.3L864 385.7L720 514.3Z" fill="#18374d" stroke="#18374d"></path><path d="M720 514.3L864 385.7L720 385.7Z" fill="#0e5972" stroke="#0e5972"></path><path d="M720 385.7L864 385.7L720 257.1Z" fill="#111827" stroke="#111827"></path><path d="M720 642.9L864 514.3L720 514.3Z" fill="#164860" stroke="#164860"></path><path d="M432 385.7L432 514.3L576 385.7Z" fill="#009292" stroke="#009292"></path><path d="M576 385.7L432 514.3L576 514.3Z" fill="#18374d" stroke="#18374d"></path><path d="M576 514.3L432 514.3L576 642.9Z" fill="#164860" stroke="#164860"></path><path d="M576 257.1L432 385.7L576 385.7Z" fill="#16273a" stroke="#16273a"></path><path d="M720 642.9L864 642.9L864 514.3Z" fill="#0e5972" stroke="#0e5972"></path><path d="M432 514.3L432 642.9L576 642.9Z" fill="#007f8f" stroke="#007f8f"></path><path d="M864 385.7L864 257.1L720 257.1Z" fill="#0e5972" stroke="#0e5972"></path><path d="M576 257.1L432 257.1L432 385.7Z" fill="#009292" stroke="#009292"></path><path d="M864 257.1L720 128.6L720 257.1Z" fill="#007f8f" stroke="#007f8f"></path><path d="M720 257.1L720 128.6L576 257.1Z" fill="#16273a" stroke="#16273a"></path><path d="M576 257.1L576 128.6L432 257.1Z" fill="#009292" stroke="#009292"></path><path d="M720 128.6L576 128.6L576 257.1Z" fill="#111827" stroke="#111827"></path><path d="M432 642.9L576 771.4L576 642.9Z" fill="#22c55e" stroke="#22c55e"></path><path d="M576 642.9L576 771.4L720 642.9Z" fill="#00b679" stroke="#00b679"></path><path d="M720 642.9L720 771.4L864 642.9Z" fill="#22c55e" stroke="#22c55e"></path><path d="M576 771.4L720 771.4L720 642.9Z" fill="#0e5972" stroke="#0e5972"></path><path d="M864 642.9L1008 514.3L864 514.3Z" fill="#006c82" stroke="#006c82"></path><path d="M864 514.3L1008 514.3L864 385.7Z" fill="#00a58b" stroke="#00a58b"></path><path d="M864 385.7L1008 385.7L864 257.1Z" fill="#00b679" stroke="#00b679"></path><path d="M1008 642.9L1008 514.3L864 642.9Z" fill="#16273a" stroke="#16273a"></path><path d="M1008 514.3L1008 385.7L864 385.7Z" fill="#18374d" stroke="#18374d"></path><path d="M432 385.7L288 514.3L432 514.3Z" fill="#16273a" stroke="#16273a"></path><path d="M432 514.3L288 514.3L432 642.9Z" fill="#00b679" stroke="#00b679"></path><path d="M432 642.9L432 771.4L576 771.4Z" fill="#111827" stroke="#111827"></path><path d="M288 385.7L288 514.3L432 385.7Z" fill="#16273a" stroke="#16273a"></path><path d="M432 257.1L288 385.7L432 385.7Z" fill="#18374d" stroke="#18374d"></path><path d="M576 128.6L432 128.6L432 257.1Z" fill="#22c55e" stroke="#22c55e"></path><path d="M432 257.1L288 257.1L288 385.7Z" fill="#00a58b" stroke="#00a58b"></path><path d="M1008 257.1L864 128.6L864 257.1Z" fill="#007f8f" stroke="#007f8f"></path><path d="M864 257.1L864 128.6L720 128.6Z" fill="#007f8f" stroke="#007f8f"></path><path d="M288 642.9L432 771.4L432 642.9Z" fill="#111827" stroke="#111827"></path><path d="M720 771.4L864 771.4L864 642.9Z" fill="#0e5972" stroke="#0e5972"></path><path d="M432 128.6L288 257.1L432 257.1Z" fill="#111827" stroke="#111827"></path><path d="M288 514.3L288 642.9L432 642.9Z" fill="#164860" stroke="#164860"></path><path d="M1008 385.7L1008 257.1L864 257.1Z" fill="#164860" stroke="#164860"></path><path d="M864 771.4L1008 642.9L864 642.9Z" fill="#007f8f" stroke="#007f8f"></path><path d="M576 771.4L576 900L720 771.4Z" fill="#111827" stroke="#111827"></path><path d="M720 771.4L720 900L864 771.4Z" fill="#22c55e" stroke="#22c55e"></path><path d="M432 771.4L576 900L576 771.4Z" fill="#006c82" stroke="#006c82"></path><path d="M720 128.6L576 0L576 128.6Z" fill="#00a58b" stroke="#00a58b"></path><path d="M576 128.6L576 0L432 128.6Z" fill="#111827" stroke="#111827"></path><path d="M720 0L576 0L720 128.6Z" fill="#00b679" stroke="#00b679"></path><path d="M864 128.6L720 0L720 128.6Z" fill="#111827" stroke="#111827"></path><path d="M576 900L720 900L720 771.4Z" fill="#18374d" stroke="#18374d"></path><path d="M432 0L288 128.6L432 128.6Z" fill="#111827" stroke="#111827"></path><path d="M432 128.6L288 128.6L288 257.1Z" fill="#18374d" stroke="#18374d"></path><path d="M1008 257.1L1008 128.6L864 128.6Z" fill="#18374d" stroke="#18374d"></path><path d="M864 128.6L864 0L720 0Z" fill="#111827" stroke="#111827"></path><path d="M864 900L1008 771.4L864 771.4Z" fill="#006c82" stroke="#006c82"></path><path d="M864 771.4L1008 771.4L1008 642.9Z" fill="#164860" stroke="#164860"></path><path d="M288 642.9L288 771.4L432 771.4Z" fill="#009292" stroke="#009292"></path><path d="M432 771.4L432 900L576 900Z" fill="#16273a" stroke="#16273a"></path><path d="M288 771.4L432 900L432 771.4Z" fill="#111827" stroke="#111827"></path><path d="M1008 128.6L864 0L864 128.6Z" fill="#16273a" stroke="#16273a"></path><path d="M720 900L864 900L864 771.4Z" fill="#009292" stroke="#009292"></path><path d="M576 0L432 0L432 128.6Z" fill="#0e5972" stroke="#0e5972"></path><path d="M1008 385.7L1152 385.7L1008 257.1Z" fill="#18374d" stroke="#18374d"></path><path d="M1008 257.1L1152 257.1L1008 128.6Z" fill="#16273a" stroke="#16273a"></path><path d="M1008 514.3L1152 385.7L1008 385.7Z" fill="#22c55e" stroke="#22c55e"></path><path d="M1152 514.3L1152 385.7L1008 514.3Z" fill="#00b679" stroke="#00b679"></path><path d="M1152 514.3L1008 514.3L1008 642.9Z" fill="#22c55e" stroke="#22c55e"></path><path d="M288 514.3L144 514.3L288 642.9Z" fill="#16273a" stroke="#16273a"></path><path d="M288 642.9L144 642.9L288 771.4Z" fill="#00a58b" stroke="#00a58b"></path><path d="M288 385.7L144 514.3L288 514.3Z" fill="#164860" stroke="#164860"></path><path d="M144 385.7L144 514.3L288 385.7Z" fill="#22c55e" stroke="#22c55e"></path><path d="M144 385.7L288 385.7L288 257.1Z" fill="#16273a" stroke="#16273a"></path><path d="M1152 642.9L1152 514.3L1008 642.9Z" fill="#009292" stroke="#009292"></path><path d="M144 257.1L144 385.7L288 257.1Z" fill="#18374d" stroke="#18374d"></path><path d="M288 128.6L144 257.1L288 257.1Z" fill="#00a58b" stroke="#00a58b"></path><path d="M144 514.3L144 642.9L288 642.9Z" fill="#009292" stroke="#009292"></path><path d="M1152 385.7L1152 257.1L1008 257.1Z" fill="#00b679" stroke="#00b679"></path><path d="M1008 771.4L1152 642.9L1008 642.9Z" fill="#00b679" stroke="#00b679"></path><path d="M144 771.4L288 900L288 771.4Z" fill="#009292" stroke="#009292"></path><path d="M288 771.4L288 900L432 900Z" fill="#111827" stroke="#111827"></path><path d="M864 900L1008 900L1008 771.4Z" fill="#006c82" stroke="#006c82"></path><path d="M1008 771.4L1152 771.4L1152 642.9Z" fill="#009292" stroke="#009292"></path><path d="M432 0L288 0L288 128.6Z" fill="#00a58b" stroke="#00a58b"></path><path d="M288 128.6L144 128.6L144 257.1Z" fill="#007f8f" stroke="#007f8f"></path><path d="M1152 128.6L1008 0L1008 128.6Z" fill="#164860" stroke="#164860"></path><path d="M1008 128.6L1008 0L864 0Z" fill="#164860" stroke="#164860"></path><path d="M1152 257.1L1152 128.6L1008 128.6Z" fill="#006c82" stroke="#006c82"></path><path d="M288 0L144 128.6L288 128.6Z" fill="#164860" stroke="#164860"></path><path d="M1008 900L1152 771.4L1008 771.4Z" fill="#007f8f" stroke="#007f8f"></path><path d="M144 642.9L144 771.4L288 771.4Z" fill="#009292" stroke="#009292"></path><path d="M1296 642.9L1296 514.3L1152 642.9Z" fill="#18374d" stroke="#18374d"></path><path d="M1152 642.9L1296 514.3L1152 514.3Z" fill="#22c55e" stroke="#22c55e"></path><path d="M1152 514.3L1296 514.3L1152 385.7Z" fill="#16273a" stroke="#16273a"></path><path d="M1152 385.7L1296 385.7L1152 257.1Z" fill="#18374d" stroke="#18374d"></path><path d="M1152 257.1L1296 257.1L1152 128.6Z" fill="#0e5972" stroke="#0e5972"></path><path d="M1296 514.3L1296 385.7L1152 385.7Z" fill="#22c55e" stroke="#22c55e"></path><path d="M0 257.1L0 385.7L144 257.1Z" fill="#18374d" stroke="#18374d"></path><path d="M144 257.1L0 385.7L144 385.7Z" fill="#164860" stroke="#164860"></path><path d="M144 385.7L0 385.7L144 514.3Z" fill="#164860" stroke="#164860"></path><path d="M144 514.3L0 514.3L144 642.9Z" fill="#007f8f" stroke="#007f8f"></path><path d="M144 642.9L0 642.9L144 771.4Z" fill="#164860" stroke="#164860"></path><path d="M0 385.7L0 514.3L144 514.3Z" fill="#007f8f" stroke="#007f8f"></path><path d="M288 0L144 0L144 128.6Z" fill="#16273a" stroke="#16273a"></path><path d="M144 128.6L0 257.1L144 257.1Z" fill="#006c82" stroke="#006c82"></path><path d="M1008 900L1152 900L1152 771.4Z" fill="#18374d" stroke="#18374d"></path><path d="M1152 771.4L1296 642.9L1152 642.9Z" fill="#009292" stroke="#009292"></path><path d="M144 771.4L144 900L288 900Z" fill="#164860" stroke="#164860"></path><path d="M0 771.4L144 900L144 771.4Z" fill="#00b679" stroke="#00b679"></path><path d="M1152 128.6L1152 0L1008 0Z" fill="#007f8f" stroke="#007f8f"></path><path d="M1296 128.6L1152 0L1152 128.6Z" fill="#111827" stroke="#111827"></path><path d="M0 514.3L0 642.9L144 642.9Z" fill="#00b679" stroke="#00b679"></path><path d="M1296 385.7L1296 257.1L1152 257.1Z" fill="#0e5972" stroke="#0e5972"></path><path d="M0 128.6L0 257.1L144 128.6Z" fill="#164860" stroke="#164860"></path><path d="M1296 771.4L1296 642.9L1152 771.4Z" fill="#18374d" stroke="#18374d"></path><path d="M1296 257.1L1296 128.6L1152 128.6Z" fill="#111827" stroke="#111827"></path><path d="M144 0L0 128.6L144 128.6Z" fill="#0e5972" stroke="#0e5972"></path><path d="M0 642.9L0 771.4L144 771.4Z" fill="#009292" stroke="#009292"></path><path d="M1152 900L1296 771.4L1152 771.4Z" fill="#00b679" stroke="#00b679"></path><path d="M1296 128.6L1296 0L1152 0Z" fill="#00a58b" stroke="#00a58b"></path><path d="M0 771.4L0 900L144 900Z" fill="#111827" stroke="#111827"></path><path d="M1152 900L1296 900L1296 771.4Z" fill="#164860" stroke="#164860"></path><path d="M144 0L0 0L0 128.6Z" fill="#22c55e" stroke="#22c55e"></path><path d="M1296 257.1L1440 257.1L1296 128.6Z" fill="#00b679" stroke="#00b679"></path><path d="M1296 128.6L1440 128.6L1296 0Z" fill="#009292" stroke="#009292"></path><path d="M1296 385.7L1440 385.7L1296 257.1Z" fill="#00b679" stroke="#00b679"></path><path d="M1296 514.3L1440 385.7L1296 385.7Z" fill="#16273a" stroke="#16273a"></path><path d="M1440 514.3L1440 385.7L1296 514.3Z" fill="#164860" stroke="#164860"></path><path d="M1440 514.3L1296 514.3L1296 642.9Z" fill="#009292" stroke="#009292"></path><path d="M1440 514.3L1296 642.9L1440 642.9Z" fill="#007f8f" stroke="#007f8f"></path><path d="M1440 642.9L1296 642.9L1296 771.4Z" fill="#00b679" stroke="#00b679"></path><path d="M1440 771.4L1440 642.9L1296 771.4Z" fill="#007f8f" stroke="#007f8f"></path><path d="M1440 385.7L1440 257.1L1296 257.1Z" fill="#00a58b" stroke="#00a58b"></path><path d="M1296 900L1440 771.4L1296 771.4Z" fill="#00a58b" stroke="#00a58b"></path><path d="M1440 257.1L1440 128.6L1296 128.6Z" fill="#111827" stroke="#111827"></path><path d="M1440 128.6L1440 0L1296 0Z" fill="#18374d" stroke="#18374d"></path><path d="M1296 900L1440 900L1440 771.4Z" fill="#18374d" stroke="#18374d"></path></g></svg>