<svg id="visual" viewBox="0 0 675 900" width="675" height="900" xmlns="http://www.w3.org/2000/svg" xmlns:xlink="http://www.w3.org/1999/xlink" version="1.1"><g stroke-width="1" stroke-linejoin="bevel"><path d="M337.5 490.9L337.5 409.1L253.1 490.9Z" fill="#154860" stroke="#154860"></path><path d="M253.1 409.1L253.1 490.9L337.5 409.1Z" fill="#00b578" stroke="#00b578"></path><path d="M337.5 409.1L253.1 327.3L253.1 409.1Z" fill="#0d5971" stroke="#0d5971"></path><path d="M337.5 327.3L253.1 327.3L337.5 409.1Z" fill="#21c45d" stroke="#21c45d"></path><path d="M253.1 490.9L253.1 572.7L337.5 490.9Z" fill="#16273a" stroke="#16273a"></path><path d="M253.1 572.7L337.5 572.7L337.5 490.9Z" fill="#0d5971" stroke="#0d5971"></path><path d="M421.9 490.9L421.9 409.1L337.5 409.1Z" fill="#16273a" stroke="#16273a"></path><path d="M337.5 409.1L421.9 327.3L337.5 327.3Z" fill="#007f8e" stroke="#007f8e"></path><path d="M421.9 490.9L337.5 409.1L337.5 490.9Z" fill="#16273a" stroke="#16273a"></path><path d="M168.8 327.3L168.8 409.1L253.1 409.1Z" fill="#007f8e" stroke="#007f8e"></path><path d="M253.1 409.1L168.8 490.9L253.1 490.9Z" fill="#006c81" stroke="#006c81"></path><path d="M253.1 490.9L168.8 490.9L253.1 572.7Z" fill="#00b578" stroke="#00b578"></path><path d="M337.5 572.7L421.9 490.9L337.5 490.9Z" fill="#21c45d" stroke="#21c45d"></path><path d="M168.8 409.1L168.8 490.9L253.1 409.1Z" fill="#16273a" stroke="#16273a"></path><path d="M421.9 409.1L421.9 327.3L337.5 409.1Z" fill="#007f8e" stroke="#007f8e"></path><path d="M253.1 327.3L168.8 327.3L253.1 409.1Z" fill="#0d5971" stroke="#0d5971"></path><path d="M168.8 490.9L168.8 572.7L253.1 572.7Z" fill="#006c81" stroke="#006c81"></path><path d="M337.5 572.7L421.9 572.7L421.9 490.9Z" fill="#006c81" stroke="#006c81"></path><path d="M337.5 245.5L253.1 245.5L253.1 327.3Z" fill="#00a489" stroke="#00a489"></path><path d="M253.1 327.3L168.8 245.5L168.8 327.3Z" fill="#006c81" stroke="#006c81"></path><path d="M337.5 245.5L253.1 327.3L337.5 327.3Z" fill="#17374d" stroke="#17374d"></path><path d="M421.9 245.5L337.5 245.5L337.5 327.3Z" fill="#154860" stroke="#154860"></path><path d="M253.1 572.7L337.5 654.5L337.5 572.7Z" fill="#154860" stroke="#154860"></path><path d="M337.5 572.7L337.5 654.5L421.9 572.7Z" fill="#009291" stroke="#009291"></path><path d="M253.1 654.5L337.5 654.5L253.1 572.7Z" fill="#154860" stroke="#154860"></path><path d="M168.8 572.7L253.1 654.5L253.1 572.7Z" fill="#009291" stroke="#009291"></path><path d="M506.3 490.9L421.9 409.1L421.9 490.9Z" fill="#0d5971" stroke="#0d5971"></path><path d="M506.3 490.9L506.3 409.1L421.9 409.1Z" fill="#006c81" stroke="#006c81"></path><path d="M421.9 409.1L506.3 327.3L421.9 327.3Z" fill="#17374d" stroke="#17374d"></path><path d="M84.4 327.3L84.4 409.1L168.8 409.1Z" fill="#00a489" stroke="#00a489"></path><path d="M168.8 409.1L84.4 490.9L168.8 490.9Z" fill="#0d5971" stroke="#0d5971"></path><path d="M168.8 490.9L84.4 490.9L168.8 572.7Z" fill="#009291" stroke="#009291"></path><path d="M421.9 572.7L506.3 490.9L421.9 490.9Z" fill="#00b578" stroke="#00b578"></path><path d="M84.4 409.1L84.4 490.9L168.8 409.1Z" fill="#006c81" stroke="#006c81"></path><path d="M253.1 245.5L168.8 245.5L253.1 327.3Z" fill="#006c81" stroke="#006c81"></path><path d="M168.8 327.3L84.4 327.3L168.8 409.1Z" fill="#007f8e" stroke="#007f8e"></path><path d="M421.9 327.3L421.9 245.5L337.5 327.3Z" fill="#21c45d" stroke="#21c45d"></path><path d="M506.3 245.5L421.9 245.5L421.9 327.3Z" fill="#006c81" stroke="#006c81"></path><path d="M337.5 654.5L421.9 654.5L421.9 572.7Z" fill="#111827" stroke="#111827"></path><path d="M421.9 572.7L506.3 572.7L506.3 490.9Z" fill="#006c81" stroke="#006c81"></path><path d="M84.4 572.7L168.8 654.5L168.8 572.7Z" fill="#009291" stroke="#009291"></path><path d="M168.8 572.7L168.8 654.5L253.1 654.5Z" fill="#009291" stroke="#009291"></path><path d="M506.3 409.1L506.3 327.3L421.9 409.1Z" fill="#006c81" stroke="#006c81"></path><path d="M84.4 245.5L84.4 327.3L168.8 327.3Z" fill="#007f8e" stroke="#007f8e"></path><path d="M84.4 490.9L84.4 572.7L168.8 572.7Z" fill="#16273a" stroke="#16273a"></path><path d="M421.9 654.5L506.3 572.7L421.9 572.7Z" fill="#21c45d" stroke="#21c45d"></path><path d="M337.5 163.6L253.1 163.6L253.1 245.5Z" fill="#00b578" stroke="#00b578"></path><path d="M253.1 245.5L168.8 163.6L168.8 245.5Z" fill="#009291" stroke="#009291"></path><path d="M337.5 163.6L253.1 245.5L337.5 245.5Z" fill="#006c81" stroke="#006c81"></path><path d="M421.9 163.6L337.5 163.6L337.5 245.5Z" fill="#00b578" stroke="#00b578"></path><path d="M337.5 654.5L337.5 736.4L421.9 654.5Z" fill="#21c45d" stroke="#21c45d"></path><path d="M253.1 654.5L337.5 736.4L337.5 654.5Z" fill="#00b578" stroke="#00b578"></path><path d="M253.1 736.4L337.5 736.4L253.1 654.5Z" fill="#006c81" stroke="#006c81"></path><path d="M168.8 654.5L253.1 736.4L253.1 654.5Z" fill="#006c81" stroke="#006c81"></path><path d="M84.4 163.6L84.4 245.5L168.8 245.5Z" fill="#00b578" stroke="#00b578"></path><path d="M168.8 245.5L84.4 245.5L168.8 327.3Z" fill="#154860" stroke="#154860"></path><path d="M506.3 327.3L506.3 245.5L421.9 327.3Z" fill="#16273a" stroke="#16273a"></path><path d="M421.9 245.5L421.9 163.6L337.5 245.5Z" fill="#154860" stroke="#154860"></path><path d="M421.9 654.5L506.3 654.5L506.3 572.7Z" fill="#009291" stroke="#009291"></path><path d="M421.9 736.4L506.3 654.5L421.9 654.5Z" fill="#0d5971" stroke="#0d5971"></path><path d="M84.4 572.7L84.4 654.5L168.8 654.5Z" fill="#16273a" stroke="#16273a"></path><path d="M168.8 654.5L168.8 736.4L253.1 736.4Z" fill="#0d5971" stroke="#0d5971"></path><path d="M590.6 490.9L590.6 409.1L506.3 409.1Z" fill="#00a489" stroke="#00a489"></path><path d="M506.3 409.1L590.6 327.3L506.3 327.3Z" fill="#111827" stroke="#111827"></path><path d="M506.3 327.3L590.6 245.5L506.3 245.5Z" fill="#0d5971" stroke="#0d5971"></path><path d="M590.6 490.9L506.3 409.1L506.3 490.9Z" fill="#111827" stroke="#111827"></path><path d="M590.6 490.9L506.3 490.9L506.3 572.7Z" fill="#00a489" stroke="#00a489"></path><path d="M590.6 572.7L590.6 490.9L506.3 572.7Z" fill="#21c45d" stroke="#21c45d"></path><path d="M0 327.3L0 409.1L84.4 409.1Z" fill="#154860" stroke="#154860"></path><path d="M84.4 409.1L0 490.9L84.4 490.9Z" fill="#154860" stroke="#154860"></path><path d="M84.4 490.9L0 490.9L84.4 572.7Z" fill="#21c45d" stroke="#21c45d"></path><path d="M84.4 572.7L0 572.7L84.4 654.5Z" fill="#16273a" stroke="#16273a"></path><path d="M0 327.3L84.4 409.1L84.4 327.3Z" fill="#009291" stroke="#009291"></path><path d="M0 409.1L0 490.9L84.4 409.1Z" fill="#17374d" stroke="#17374d"></path><path d="M253.1 163.6L168.8 163.6L253.1 245.5Z" fill="#009291" stroke="#009291"></path><path d="M337.5 736.4L421.9 736.4L421.9 654.5Z" fill="#21c45d" stroke="#21c45d"></path><path d="M506.3 163.6L421.9 163.6L421.9 245.5Z" fill="#007f8e" stroke="#007f8e"></path><path d="M84.4 654.5L168.8 736.4L168.8 654.5Z" fill="#007f8e" stroke="#007f8e"></path><path d="M0 245.5L0 327.3L84.4 327.3Z" fill="#21c45d" stroke="#21c45d"></path><path d="M590.6 409.1L590.6 327.3L506.3 409.1Z" fill="#16273a" stroke="#16273a"></path><path d="M0 490.9L0 572.7L84.4 572.7Z" fill="#17374d" stroke="#17374d"></path><path d="M506.3 654.5L590.6 572.7L506.3 572.7Z" fill="#00b578" stroke="#00b578"></path><path d="M0 654.5L84.4 736.4L84.4 654.5Z" fill="#009291" stroke="#009291"></path><path d="M84.4 654.5L84.4 736.4L168.8 736.4Z" fill="#0d5971" stroke="#0d5971"></path><path d="M506.3 245.5L506.3 163.6L421.9 245.5Z" fill="#00a489" stroke="#00a489"></path><path d="M590.6 163.6L506.3 163.6L506.3 245.5Z" fill="#0d5971" stroke="#0d5971"></path><path d="M421.9 736.4L506.3 736.4L506.3 654.5Z" fill="#0d5971" stroke="#0d5971"></path><path d="M506.3 654.5L590.6 654.5L590.6 572.7Z" fill="#006c81" stroke="#006c81"></path><path d="M168.8 163.6L84.4 163.6L168.8 245.5Z" fill="#17374d" stroke="#17374d"></path><path d="M84.4 245.5L0 245.5L84.4 327.3Z" fill="#17374d" stroke="#17374d"></path><path d="M0 163.6L0 245.5L84.4 245.5Z" fill="#16273a" stroke="#16273a"></path><path d="M590.6 327.3L590.6 245.5L506.3 327.3Z" fill="#21c45d" stroke="#21c45d"></path><path d="M0 572.7L0 654.5L84.4 654.5Z" fill="#17374d" stroke="#17374d"></path><path d="M506.3 736.4L590.6 654.5L506.3 654.5Z" fill="#007f8e" stroke="#007f8e"></path><path d="M421.9 81.8L337.5 163.6L421.9 163.6Z" fill="#00a489" stroke="#00a489"></path><path d="M421.9 81.8L337.5 81.8L337.5 163.6Z" fill="#0d5971" stroke="#0d5971"></path><path d="M337.5 163.6L253.1 81.8L253.1 163.6Z" fill="#009291" stroke="#009291"></path><path d="M253.1 163.6L168.8 81.8L168.8 163.6Z" fill="#17374d" stroke="#17374d"></path><path d="M168.8 163.6L84.4 81.8L84.4 163.6Z" fill="#154860" stroke="#154860"></path><path d="M337.5 81.8L253.1 81.8L337.5 163.6Z" fill="#17374d" stroke="#17374d"></path><path d="M168.8 736.4L253.1 818.2L253.1 736.4Z" fill="#111827" stroke="#111827"></path><path d="M253.1 736.4L253.1 818.2L337.5 736.4Z" fill="#009291" stroke="#009291"></path><path d="M337.5 736.4L337.5 818.2L421.9 736.4Z" fill="#00b578" stroke="#00b578"></path><path d="M421.9 736.4L421.9 818.2L506.3 736.4Z" fill="#21c45d" stroke="#21c45d"></path><path d="M168.8 818.2L253.1 818.2L168.8 736.4Z" fill="#111827" stroke="#111827"></path><path d="M253.1 818.2L337.5 818.2L337.5 736.4Z" fill="#17374d" stroke="#17374d"></path><path d="M675 490.9L675 409.1L590.6 409.1Z" fill="#154860" stroke="#154860"></path><path d="M590.6 409.1L675 327.3L590.6 327.3Z" fill="#16273a" stroke="#16273a"></path><path d="M590.6 327.3L675 245.5L590.6 245.5Z" fill="#154860" stroke="#154860"></path><path d="M675 490.9L590.6 409.1L590.6 490.9Z" fill="#154860" stroke="#154860"></path><path d="M675 490.9L590.6 490.9L590.6 572.7Z" fill="#006c81" stroke="#006c81"></path><path d="M675 572.7L675 490.9L590.6 572.7Z" fill="#009291" stroke="#009291"></path><path d="M506.3 81.8L421.9 81.8L421.9 163.6Z" fill="#007f8e" stroke="#007f8e"></path><path d="M253.1 81.8L168.8 81.8L253.1 163.6Z" fill="#00a489" stroke="#00a489"></path><path d="M84.4 736.4L168.8 818.2L168.8 736.4Z" fill="#21c45d" stroke="#21c45d"></path><path d="M84.4 818.2L168.8 818.2L84.4 736.4Z" fill="#00a489" stroke="#00a489"></path><path d="M337.5 818.2L421.9 818.2L421.9 736.4Z" fill="#17374d" stroke="#17374d"></path><path d="M506.3 736.4L590.6 736.4L590.6 654.5Z" fill="#00a489" stroke="#00a489"></path><path d="M675 409.1L675 327.3L590.6 409.1Z" fill="#17374d" stroke="#17374d"></path><path d="M590.6 654.5L675 572.7L590.6 572.7Z" fill="#007f8e" stroke="#007f8e"></path><path d="M0 654.5L0 736.4L84.4 736.4Z" fill="#16273a" stroke="#16273a"></path><path d="M675 163.6L590.6 163.6L590.6 245.5Z" fill="#00b578" stroke="#00b578"></path><path d="M590.6 245.5L590.6 163.6L506.3 245.5Z" fill="#16273a" stroke="#16273a"></path><path d="M506.3 163.6L506.3 81.8L421.9 163.6Z" fill="#154860" stroke="#154860"></path><path d="M0 81.8L0 163.6L84.4 163.6Z" fill="#006c81" stroke="#006c81"></path><path d="M84.4 163.6L0 163.6L84.4 245.5Z" fill="#009291" stroke="#009291"></path><path d="M506.3 818.2L590.6 736.4L506.3 736.4Z" fill="#00a489" stroke="#00a489"></path><path d="M590.6 654.5L675 654.5L675 572.7Z" fill="#111827" stroke="#111827"></path><path d="M168.8 81.8L84.4 81.8L168.8 163.6Z" fill="#00a489" stroke="#00a489"></path><path d="M590.6 81.8L506.3 81.8L506.3 163.6Z" fill="#006c81" stroke="#006c81"></path><path d="M421.9 818.2L506.3 818.2L506.3 736.4Z" fill="#00b578" stroke="#00b578"></path><path d="M0 736.4L84.4 818.2L84.4 736.4Z" fill="#00a489" stroke="#00a489"></path><path d="M675 327.3L675 245.5L590.6 327.3Z" fill="#16273a" stroke="#16273a"></path><path d="M675 736.4L675 654.5L590.6 736.4Z" fill="#007f8e" stroke="#007f8e"></path><path d="M590.6 736.4L675 654.5L590.6 654.5Z" fill="#00b578" stroke="#00b578"></path><path d="M253.1 81.8L168.8 0L168.8 81.8Z" fill="#154860" stroke="#154860"></path><path d="M168.8 81.8L84.4 0L84.4 81.8Z" fill="#00b578" stroke="#00b578"></path><path d="M337.5 0L253.1 0L253.1 81.8Z" fill="#00a489" stroke="#00a489"></path><path d="M337.5 0L253.1 81.8L337.5 81.8Z" fill="#006c81" stroke="#006c81"></path><path d="M337.5 0L337.5 81.8L421.9 0Z" fill="#007f8e" stroke="#007f8e"></path><path d="M421.9 0L337.5 81.8L421.9 81.8Z" fill="#16273a" stroke="#16273a"></path><path d="M253.1 900L253.1 818.2L168.8 818.2Z" fill="#0d5971" stroke="#0d5971"></path><path d="M253.1 900L337.5 900L253.1 818.2Z" fill="#21c45d" stroke="#21c45d"></path><path d="M253.1 818.2L337.5 900L337.5 818.2Z" fill="#007f8e" stroke="#007f8e"></path><path d="M337.5 818.2L337.5 900L421.9 818.2Z" fill="#154860" stroke="#154860"></path><path d="M421.9 818.2L421.9 900L506.3 818.2Z" fill="#21c45d" stroke="#21c45d"></path><path d="M168.8 900L253.1 900L168.8 818.2Z" fill="#17374d" stroke="#17374d"></path><path d="M253.1 0L168.8 0L253.1 81.8Z" fill="#111827" stroke="#111827"></path><path d="M506.3 0L421.9 0L421.9 81.8Z" fill="#21c45d" stroke="#21c45d"></path><path d="M337.5 900L421.9 900L421.9 818.2Z" fill="#007f8e" stroke="#007f8e"></path><path d="M506.3 818.2L590.6 818.2L590.6 736.4Z" fill="#16273a" stroke="#16273a"></path><path d="M84.4 818.2L168.8 900L168.8 818.2Z" fill="#17374d" stroke="#17374d"></path><path d="M0 0L0 81.8L84.4 81.8Z" fill="#009291" stroke="#009291"></path><path d="M84.4 81.8L0 81.8L84.4 163.6Z" fill="#21c45d" stroke="#21c45d"></path><path d="M590.6 163.6L590.6 81.8L506.3 163.6Z" fill="#0d5971" stroke="#0d5971"></path><path d="M506.3 81.8L506.3 0L421.9 81.8Z" fill="#17374d" stroke="#17374d"></path><path d="M675 81.8L590.6 81.8L590.6 163.6Z" fill="#009291" stroke="#009291"></path><path d="M0 736.4L0 818.2L84.4 818.2Z" fill="#111827" stroke="#111827"></path><path d="M84.4 818.2L84.4 900L168.8 900Z" fill="#00a489" stroke="#00a489"></path><path d="M506.3 900L590.6 818.2L506.3 818.2Z" fill="#17374d" stroke="#17374d"></path><path d="M590.6 818.2L675 736.4L590.6 736.4Z" fill="#21c45d" stroke="#21c45d"></path><path d="M675 245.5L675 163.6L590.6 245.5Z" fill="#21c45d" stroke="#21c45d"></path><path d="M590.6 0L506.3 0L506.3 81.8Z" fill="#154860" stroke="#154860"></path><path d="M168.8 0L84.4 0L168.8 81.8Z" fill="#00a489" stroke="#00a489"></path><path d="M421.9 900L506.3 900L506.3 818.2Z" fill="#009291" stroke="#009291"></path><path d="M0 818.2L84.4 900L84.4 818.2Z" fill="#17374d" stroke="#17374d"></path><path d="M675 163.6L675 81.8L590.6 163.6Z" fill="#00a489" stroke="#00a489"></path><path d="M590.6 81.8L590.6 0L506.3 81.8Z" fill="#00a489" stroke="#00a489"></path><path d="M590.6 818.2L675 818.2L675 736.4Z" fill="#006c81" stroke="#006c81"></path><path d="M590.6 900L675 818.2L590.6 818.2Z" fill="#16273a" stroke="#16273a"></path><path d="M84.4 0L0 0L84.4 81.8Z" fill="#16273a" stroke="#16273a"></path><path d="M675 0L590.6 0L590.6 81.8Z" fill="#21c45d" stroke="#21c45d"></path><path d="M0 818.2L0 900L84.4 900Z" fill="#00a489" stroke="#00a489"></path><path d="M506.3 900L590.6 900L590.6 818.2Z" fill="#17374d" stroke="#17374d"></path><path d="M675 81.8L675 0L590.6 81.8Z" fill="#111827" stroke="#111827"></path><path d="M590.6 900L675 900L675 818.2Z" fill="#00a489" stroke="#00a489"></path></g></svg>